<svg width="144" height="214" viewBox="0 0 144 214" fill="none" xmlns="http://www.w3.org/2000/svg">
<path d="M71.959 106.893C71.959 87.2595 88.0497 71.262 107.979 71.262C127.827 71.262 144 87.1787 144 106.893C144 126.526 127.909 142.524 107.979 142.524C88.1314 142.524 71.959 126.526 71.959 106.893Z" fill="#1ABCFE"/>
<path d="M0 178.074C0 158.441 16.0908 142.443 36.0204 142.443H72.0408V178.074C72.0408 197.707 55.9501 213.705 36.0204 213.705C16.0908 213.705 0 197.788 0 178.074Z" fill="#0ACF83"/>
<path d="M71.959 0.0807958V71.2619H107.979C127.827 71.2619 144 55.3451 144 35.6309C144 15.9976 127.909 0 107.979 0H71.959V0.0807958Z" fill="#FF7262"/>
<path d="M0 35.712C0 55.3453 16.0908 71.3429 36.0204 71.3429H72.0408V0.0810089H36.0204C16.0908 0.0810089 0 15.9978 0 35.712Z" fill="#F24E1E"/>
<path d="M0 106.893C0 126.526 16.0908 142.524 36.0204 142.524H72.0408V71.262H36.0204C16.0908 71.262 0 87.2595 0 106.893Z" fill="#A259FF"/>
</svg>
