<svg xmlns="http://www.w3.org/2000/svg" width="32" height="32" id="responsive" fill="#ffffff"><path d="M2.344 6A.5.5 0 0 0 2 6.5V21H.5a.5.5 0 0 0-.156 0 .5.5 0 0 0-.344.5C0 22.909 1.27 24 2.75 24H23v1.5a.5.5 0 0 0 .5.5h8a.5.5 0 0 0 .5-.5v-13a.5.5 0 0 0-.5-.5H27V6.5a.5.5 0 0 0-.5-.5h-24a.5.5 0 0 0-.156 0zM3 7h23v5h-2.5a.5.5 0 0 0-.156 0 .5.5 0 0 0-.344.5V21H3V7zm11.938 3A3.977 3.977 0 0 0 11 12.531l-.438-.75a.5.5 0 0 0-.624-.25.5.5 0 0 0-.25.75l1 1.719a.5.5 0 0 0 .687.188l1.719-1a.504.504 0 1 0-.5-.876l-.563.313a2.983 2.983 0 0 1 3.438-1.531 3.057 3.057 0 0 1 1.844 1.406.5.5 0 1 0 .843-.5c-.53-.918-1.381-1.6-2.406-1.875a4.122 4.122 0 0 0-.813-.125zM24 13h7v1h-7v-1zm-6.156.969a.5.5 0 0 0-.219.094l-1.719 1a.5.5 0 1 0 .5.843l.594-.344a2.956 2.956 0 0 1-3.469 1.594 3.056 3.056 0 0 1-1.844-1.406.5.5 0 1 0-.843.5c.53.919 1.381 1.6 2.406 1.875A3.996 3.996 0 0 0 18 15.719l.438.75a.504.504 0 1 0 .875-.5l-1-1.75a.5.5 0 0 0-.47-.25zM24 15h7v8h-7v-8zM1.25 22H23v1H2.75c-.757 0-1.249-.458-1.5-1zM24 24h7v1h-7v-1z" color="#000" font-family="Sans" font-weight="400" overflow="visible" style="text-indent:0;text-align:start;line-height:normal;text-transform:none;block-progression:tb;marker:none;-inkscape-font-specification:Sans"></path></svg>