<svg xmlns="http://www.w3.org/2000/svg" viewBox="0 0 512 481.25" id="ui-design" fill="#ffffff"><g data-name="Layer 2"><g data-name="ui design"><path d="M502,373.62H10a10,10,0,0,1-10-10V10A10,10,0,0,1,10,0H502a10,10,0,0,1,10,10V363.62A10,10,0,0,1,502,373.62Zm-482-20H492V20H20Z"></path><path d="M174 481.25a10 10 0 01-7.59-16.51c24.25-28.29 24.25-66.31 0-94.61a10 10 0 1115.18-13c30.45 35.51 30.45 85.12 0 120.64A10 10 0 01174 481.25zM338 481.25a10 10 0 01-7.59-3.49c-30.44-35.52-30.44-85.13 0-120.64a10 10 0 1115.18 13c-24.25 28.3-24.25 66.32 0 94.61A10 10 0 01338 481.25z"></path><path d="M394.38 481.25H117.62a10 10 0 010-20H394.38a10 10 0 010 20zM286.75 250.62H71.5a10 10 0 01-10-10V71.5a10 10 0 0110-10H286.75a10 10 0 0110 10V240.62A10 10 0 01286.75 250.62zm-205.25-20H276.75V81.5H81.5zM455.88 312.12H56.12a10 10 0 010-20H455.88a10 10 0 010 20z"></path><path d="M194.51,250.63a10,10,0,0,1-8.33-4.46L133,166.4,79.82,246.17a10,10,0,1,1-16.64-11.09l61.5-92.25a10,10,0,0,1,16.64,0l61.5,92.25a10,10,0,0,1-8.31,15.55Z"></path><path d="M286.76 250.62a10 10 0 01-7.9-3.85l-67.45-86.59L177.91 209a10 10 0 11-16.49-11.31l41.23-60.12a10 10 0 0116.14-.49l75.85 97.38a10 10 0 01-7.88 16.14zM440.5 189.12H348.25a10 10 0 01-10-10V71.5a10 10 0 0110-10H440.5a10 10 0 0110 10V179.12A10 10 0 01440.5 189.12zm-82.25-20H430.5V81.5H358.25zM455.88 250.62h-123a10 10 0 010-20h123a10 10 0 010 20z"></path></g></g></svg>