<svg xmlns="http://www.w3.org/2000/svg" width="64" height="64"  id="web" ><path fill-rule="evenodd" fill="#ffffff" d="M38.395 3C37.63 3 37 3.632 37 4.396V14.61c0 .765.63 1.397 1.395 1.397h2.652V17H12.29A2.3 2.3 0 0 0 10 19.297v12.861a10.005 10.005 0 0 0-2.508 2.881c-2.247 3.892-1.589 8.67 1.297 11.818L6.797 50.31a.5.5 0 0 0 .182.683l.224.131-1.053 1.824-2.502 4.334-1.347 2.332a2.265 2.265 0 0 0 .828 3.086 2.265 2.265 0 0 0 3.086-.826l4.902-8.49.225.129a.5.5 0 0 0 .683-.184l1.993-3.453c2.323.515 4.735.171 6.808-.902h30.701A5.472 5.472 0 0 0 57 43.5a.5.5 0 0 0-.5-.5H54V29h5.5a.5.5 0 0 0 .5-.5v-6a.5.5 0 0 0-.5-.5H54v-2.703A2.302 2.302 0 0 0 51.707 17h-4.861l.84-.994h8.867c.764 0 1.394-.632 1.394-1.397V4.396c0-.764-.63-1.396-1.394-1.396H38.395zm0 1h18.158c.227 0 .394.168.394.396V14.61a.384.384 0 0 1-.394.397h-9.1a.5.5 0 0 0-.38.178l-5.026 5.949v-5.627a.5.5 0 0 0-.5-.5h-3.152a.384.384 0 0 1-.395-.397V4.396c0-.228.168-.396.395-.396zM40 6v1h15.512V6H40zm0 2v1h11.932V8H40zm0 2v1h15.512v-1H40zm0 2v1h11.932v-1H40zm-27.709 6h28.756v2.016H13.5a.5.5 0 0 0-.5.5v10.033c-.695.233-1.367.535-2 .916V19.297A1.28 1.28 0 0 1 12.291 18zm33.711 0h5.705c.724 0 1.293.57 1.293 1.297V22h-2v-1.484a.5.5 0 0 0-.5-.5h-6.201L46.002 18zM14 21.016h27.047V22H18.5a.5.5 0 0 0-.5.5v6a.5.5 0 0 0 .5.5H50v11.016H26.236c-.02-3.454-1.808-6.81-5.011-8.659A10.001 10.001 0 0 0 14 30.27v-9.254zm29.455 0H50V22h-7.377l.832-.984zM19 23h33v5H19v-5zm34 0h6v5h-6v-5zm2.41.506c-.765 0-1.394.632-1.394 1.396 0 .765.63 1.397 1.394 1.397.2 0 .392-.045.565-.123l1.166 1.168a.5.5 0 1 0 .707-.707l-1.166-1.168c.078-.174.123-.365.123-.567 0-.764-.63-1.396-1.395-1.396zm0 1c.224 0 .395.171.395.396 0 .226-.171.397-.395.397a.388.388 0 0 1-.394-.397c0-.225.17-.396.394-.396zM51 29h2v14H25.8c.2-.654.33-1.318.393-1.984H50.5a.5.5 0 0 0 .5-.5V29zm-19.508.994A.5.5 0 0 0 31 30.5v7.926a.5.5 0 0 0 .553.574h11.94a.5.5 0 1 0 0-1h-10.79L35 35.703l.646.647a.5.5 0 0 0 .708 0L38 34.703l.646.647a.5.5 0 0 0 .708 0l3.654-3.655v.805a.5.5 0 1 0 1 0v-2a.5.5 0 0 0-.5-.5h-2a.5.5 0 1 0 0 1h.781L39 34.29l-.646-.647a.5.5 0 0 0-.708 0L36 35.289l-.646-.646a.5.5 0 0 0-.708 0L32 37.289V30.5a.5.5 0 0 0-.508-.506zM16.44 31.01a9.025 9.025 0 0 1 4.286 1.215 9.042 9.042 0 0 1 3.31 12.363 9.043 9.043 0 0 1-12.363 3.314A9.042 9.042 0 0 1 8.359 35.54a9.046 9.046 0 0 1 8.08-4.53zm-.03 1.265a7.798 7.798 0 0 0-6.96 3.893c-2.149 3.722-.87 8.494 2.852 10.643 3.722 2.148 8.497.87 10.646-2.852 2.15-3.722.869-8.496-2.853-10.645a7.745 7.745 0 0 0-3.686-1.039zm-.03.995a6.771 6.771 0 0 1 3.215.912 6.776 6.776 0 0 1 3.392 5.834H14v-6.377a6.805 6.805 0 0 1 2.379-.37zM13 34.074v6.442a.5.5 0 0 0 .5.5h9.422A6.755 6.755 0 0 1 22.316 43H11v-7.303a6.744 6.744 0 0 1 2-1.623zm-3 3.205v5.553a6.768 6.768 0 0 1 0-5.553zM10.666 44h11.066a6.786 6.786 0 0 1-11.066 0zm14.771 0H27v.857c0 .996.796 1.827 1.785 1.827h6.43c.99 0 1.785-.831 1.785-1.827V44h18.9c-.256 2.235-2.064 3.973-4.373 3.973H22.391a10.005 10.005 0 0 0 2.511-2.885c.206-.356.378-.72.535-1.088zm2.563.03h8v.827c0 .476-.35.827-.785.827h-6.43c-.435 0-.785-.351-.785-.827v-.828zM9.525 47.581a10.08 10.08 0 0 0 3.496 2.02l-1.61 2.79-.657-.378v.002l-2.182-1.26v-.002l-.66-.381 1.613-2.791zM8.07 51.623l2.182 1.26-4.902 8.49a1.246 1.246 0 0 1-1.721.461 1.246 1.246 0 0 1-.461-1.72l1.346-2.333 2.502-4.334 1.054-1.824z" font-family="sans-serif" font-weight="400" overflow="visible" style="line-height:normal;text-indent:0;text-align:start;text-decoration-line:none;text-decoration-style:solid;text-decoration-color:#000;text-transform:none;block-progression:tb;white-space:normal;isolation:auto;mix-blend-mode:normal;solid-color:#000;solid-opacity:1"></path></svg>